<svg height="480pt" viewBox="-48 0 480 480" width="480pt" xmlns="http://www.w3.org/2000/svg"><path d="m360 0h-352c-4.417969 0-8 3.582031-8 8v464c0 4.417969 3.582031 8 8 8h352c13.253906 0 24-10.746094 24-24v-432c0-13.253906-10.746094-24-24-24zm-344 16h48v448h-48zm272 0h32v48l-9.601562-12.800781c-1.574219-1.914063-3.921876-3.019531-6.398438-3.019531s-4.824219 1.105468-6.398438 3.019531l-9.601562 12.800781zm80 440c0 4.417969-3.582031 8-8 8h-280v-448h192v72c0 3.445312 2.203125 6.5 5.46875 7.589844 3.269531 1.089844 6.863281-.035156 8.929688-2.789063l17.601562-23.464843 17.601562 23.464843c1.507813 2.011719 3.878907 3.199219 6.398438 3.199219.859375-.003906 1.710938-.140625 2.527344-.40625 3.269531-1.089844 5.472656-4.148438 5.472656-7.59375v-72h24c4.417969 0 8 3.582031 8 8zm0 0"/><path d="m112 80h128v16h-128zm0 0"/><path d="m112 48h32v16h-32zm0 0"/><path d="m160 48h80v16h-80zm0 0"/><path d="m112 128h80v16h-80zm0 0"/><path d="m208 128h128v16h-128zm0 0"/><path d="m112 160h128v16h-128zm0 0"/><path d="m256 160h80v16h-80zm0 0"/><path d="m112 192h224v16h-224zm0 0"/><path d="m112 224h80v16h-80zm0 0"/><path d="m208 224h48v16h-48zm0 0"/><path d="m272 224h64v16h-64zm0 0"/><path d="m112 256h64v16h-64zm0 0"/><path d="m192 256h144v16h-144zm0 0"/><path d="m112 288h224v16h-224zm0 0"/><path d="m112 320h80v16h-80zm0 0"/><path d="m208 320h32v16h-32zm0 0"/><path d="m256 320h80v16h-80zm0 0"/><path d="m112 352h224v16h-224zm0 0"/><path d="m112 384h192v16h-192zm0 0"/><path d="m320 384h16v16h-16zm0 0"/><path d="m112 416h224v16h-224zm0 0"/></svg>